<?xml version="1.0" encoding="UTF-8" standalone="no"?>
<!-- Created with Inkscape (http://www.inkscape.org/) -->

<svg
   width="512"
   height="512"
   viewBox="0 0 135.46666 135.46667"
   version="1.1"
   id="svg1"
   inkscape:version="1.3 (0e150ed6c4, 2023-07-21)"
   sodipodi:docname="mewi_2.svg"
   inkscape:export-filename="mewi_2.png"
   inkscape:export-xdpi="96"
   inkscape:export-ydpi="96"
   xmlns:inkscape="http://www.inkscape.org/namespaces/inkscape"
   xmlns:sodipodi="http://sodipodi.sourceforge.net/DTD/sodipodi-0.dtd"
   xmlns:xlink="http://www.w3.org/1999/xlink"
   xmlns="http://www.w3.org/2000/svg"
   xmlns:svg="http://www.w3.org/2000/svg">
  <sodipodi:namedview
     id="namedview1"
     pagecolor="#000000"
     bordercolor="#999999"
     borderopacity="1"
     inkscape:showpageshadow="2"
     inkscape:pageopacity="0"
     inkscape:pagecheckerboard="true"
     inkscape:deskcolor="#d1d1d1"
     inkscape:document-units="px"
     inkscape:zoom="2.0899411"
     inkscape:cx="260.29442"
     inkscape:cy="303.11859"
     inkscape:window-width="2560"
     inkscape:window-height="1369"
     inkscape:window-x="1912"
     inkscape:window-y="-8"
     inkscape:window-maximized="1"
     inkscape:current-layer="layer1" />
  <defs
     id="defs1">
    <linearGradient
       id="linearGradient1"
       inkscape:collect="always">
      <stop
         style="stop-color:#2e94d7;stop-opacity:1;"
         offset="0"
         id="stop1" />
      <stop
         style="stop-color:#2dd5b9;stop-opacity:1;"
         offset="1"
         id="stop2" />
    </linearGradient>
    <linearGradient
       inkscape:collect="always"
       xlink:href="#linearGradient1"
       id="linearGradient2"
       x1="-0.37979543"
       y1="96.847824"
       x2="135.46037"
       y2="38.992329"
       gradientUnits="userSpaceOnUse" />
  </defs>
  <g
     inkscape:label="Lager 1"
     inkscape:groupmode="layer"
     id="layer1">
    <path
       id="rect4-9"
       style="fill:url(#linearGradient2);fill-opacity:1;fill-rule:nonzero;stroke-width:0.299945;stroke-dasharray:none"
       inkscape:label="mw"
       d="M 31.602722 39.064799 C 31.596673 39.06467 31.590684 39.065947 31.584635 39.065832 C 31.291861 39.060582 30.99974 39.075575 30.70872 39.104073 C 30.60305 39.114308 30.498708 39.132724 30.393493 39.147481 C 30.200929 39.174684 30.009301 39.207252 29.818851 39.2498 C 29.698058 39.276654 29.578369 39.306614 29.458667 39.339717 C 29.28072 39.38912 29.10502 39.447888 28.930017 39.511283 C 28.812211 39.553818 28.69434 39.593591 28.5781 39.642541 C 28.379929 39.726219 28.185981 39.824698 27.993123 39.927278 C 27.916095 39.968153 27.835622 39.997043 27.759546 40.040966 C 27.638649 40.110766 27.531663 40.195138 27.416414 40.270926 C 27.292417 40.352346 27.165053 40.430027 27.047444 40.51794 C 26.936398 40.601268 26.8343 40.692557 26.729118 40.78149 C 26.604322 40.886423 26.480398 40.99166 26.363765 41.103951 C 26.280862 41.184283 26.202697 41.268107 26.123986 41.351997 C 25.993562 41.490088 25.868213 41.631634 25.749332 41.778845 C 25.690866 41.851642 25.633957 41.925157 25.578283 42.00002 C 25.450028 42.171703 25.330191 42.348749 25.217065 42.530737 C 25.191653 42.571623 25.160599 42.608749 25.135933 42.650109 C 24.858414 43.007841 24.593948 43.381872 24.359753 43.787508 L 1.3255005 83.68533 C -1.1511921 87.975092 -0.057790981 93.21085 3.7775472 95.425182 C 7.6128823 97.639517 12.694988 95.96892 15.171684 91.679157 L 31.756718 62.952229 L 48.341752 91.679157 C 48.575941 92.0848 48.840412 92.45883 49.117932 92.816556 C 49.749301 93.87524 50.625205 94.780669 51.741544 95.425182 C 51.997314 95.572852 52.261829 95.691948 52.527542 95.805004 C 52.576559 95.825998 52.623443 95.854922 52.672753 95.874767 C 52.800175 95.925666 52.931642 95.957619 53.060843 96.000857 C 53.263116 96.069228 53.464237 96.142096 53.670108 96.19206 C 53.738818 96.208496 53.808809 96.214856 53.877848 96.229267 C 54.148936 96.286795 54.421049 96.335876 54.695886 96.362592 C 54.726987 96.365527 54.758286 96.364178 54.78942 96.366727 C 55.056512 96.389324 55.324065 96.407577 55.592472 96.401866 C 55.643722 96.400806 55.694651 96.392598 55.745951 96.390498 C 56.087491 96.404242 56.429077 96.396107 56.768627 96.364659 C 57.796966 96.270413 58.807249 95.96603 59.743123 95.425699 C 60.859472 94.781179 61.735366 93.875237 62.366735 92.816556 C 62.644255 92.458824 62.908715 92.084795 63.142915 91.679157 L 79.724332 62.95843 L 96.305748 91.679157 C 96.559566 92.118784 96.846783 92.523738 97.151175 92.906989 C 97.777895 93.92545 98.629491 94.800259 99.712775 95.425699 C 100.95255 96.141483 102.32278 96.44343 103.69289 96.389981 C 104.35002 96.417838 105.00576 96.36016 105.64885 96.216348 C 105.73466 96.197463 105.81937 96.174822 105.90465 96.152786 C 106.11963 96.09648 106.33205 96.029388 106.54285 95.952798 C 106.64902 95.91457 106.75524 95.878455 106.86014 95.834976 C 107.07871 95.743756 107.29295 95.637529 107.50506 95.523367 C 107.57153 95.487716 107.64137 95.463662 107.70712 95.425699 C 107.83586 95.35137 107.95014 95.261862 108.07247 95.180752 C 108.18778 95.104421 108.30689 95.03225 108.41664 94.950276 C 108.5297 94.865507 108.63366 94.772648 108.74065 94.682075 C 108.86421 94.578044 108.98735 94.473964 109.1029 94.362714 C 109.1858 94.282382 109.26397 94.198558 109.34268 94.114668 C 109.4731 93.976577 109.59845 93.835031 109.71733 93.68782 C 109.7758 93.615023 109.83271 93.541508 109.88838 93.466645 C 110.01664 93.294962 110.13648 93.117916 110.2496 92.935928 C 110.27501 92.895042 110.30607 92.857916 110.33073 92.816556 C 110.60825 92.458823 110.87272 92.084793 111.10691 91.679157 L 134.14116 51.781335 C 136.61783 47.491571 135.52444 42.255816 131.68912 40.041483 C 127.85379 37.82715 122.77167 39.497744 120.29498 43.787508 L 103.70995 72.514436 L 87.124913 43.787508 C 86.890714 43.381873 86.626243 43.007841 86.348733 42.650109 C 85.717364 41.591423 84.84146 40.686002 83.725121 40.041483 C 82.78924 39.501153 81.778961 39.196252 80.750626 39.102006 C 80.408675 39.070336 80.064672 39.06201 79.720714 39.076167 C 79.379174 39.062104 79.037615 39.070884 78.698038 39.102006 C 77.669702 39.196249 76.659424 39.500635 75.723542 40.040966 C 74.607203 40.685485 73.731299 41.591427 73.09993 42.650109 C 72.82241 43.00784 72.55794 43.381872 72.32375 43.787508 L 55.742333 72.508235 L 39.160917 43.787508 C 38.907098 43.347881 38.619883 42.942926 38.31549 42.559676 C 37.688769 41.541214 36.837184 40.666407 35.75389 40.040966 C 34.514118 39.325183 33.143899 39.023256 31.773771 39.076684 C 31.717406 39.074295 31.661147 39.065957 31.604789 39.064799 C 31.604105 39.064782 31.603406 39.064813 31.602722 39.064799 z " />
  </g>
</svg>
